<?xml version="1.0" standalone="no"?>
<!DOCTYPE svg PUBLIC "-//W3C//DTD SVG 20010904//EN"
 "http://www.w3.org/TR/2001/REC-SVG-20010904/DTD/svg10.dtd">
<svg version="1.0" xmlns="http://www.w3.org/2000/svg"
 width="1244.000000pt" height="1280.000000pt" viewBox="0 0 1244.000000 1280.000000"
 preserveAspectRatio="xMidYMid meet">
<metadata>
Created by potrace 1.15, written by Peter Selinger 2001-2017
</metadata>
<g transform="translate(0.000000,1280.000000) scale(0.100000,-0.100000)"
fill="#000000" stroke="none">
<path d="M1885 12789 c-82 -5 -186 -13 -230 -17 -44 -5 -90 -5 -102 -1 -15 5
-25 3 -33 -7 -7 -7 -24 -14 -39 -14 -92 0 -507 -91 -741 -161 -145 -44 -480
-165 -493 -178 -4 -4 27 -37 70 -72 154 -127 285 -250 703 -664 610 -604 815
-773 1141 -944 297 -156 555 -223 914 -237 88 -3 221 -14 295 -25 153 -21 477
-99 458 -110 -39 -21 -449 -64 -943 -99 -671 -47 -943 -85 -1254 -175 -956
-275 -1455 -1031 -1613 -2445 -16 -152 -17 -721 0 -905 144 -1568 775 -3316
1706 -4725 695 -1052 1461 -1729 2195 -1940 181 -52 269 -64 471 -64 236 0
281 10 753 159 477 150 535 165 682 172 193 9 271 -4 975 -171 621 -146 587
-141 890 -140 247 0 260 1 408 32 756 157 1512 690 2224 1567 1016 1253 1814
3086 2047 4700 129 896 79 1632 -148 2205 -119 298 -302 552 -645 896 -441
440 -895 734 -1512 977 -812 321 -1829 468 -2952 428 -184 -6 -336 -10 -338
-8 -13 12 100 368 183 576 114 288 164 384 236 454 71 70 144 113 308 182 215
90 261 123 261 188 0 49 -21 83 -99 160 -126 123 -221 177 -314 177 -64 0
-107 -18 -163 -70 -86 -80 -141 -176 -343 -610 -174 -371 -251 -579 -344 -926
l-43 -161 -135 -12 c-156 -14 -533 -58 -573 -67 -25 -5 -31 0 -55 42 -470 799
-1057 1364 -1777 1709 -387 186 -773 290 -1200 325 -148 12 -611 11 -831 -1z"/>
</g>
</svg>
